<svg width="20" height="20" viewBox="0 0 20 20" fill="none" xmlns="http://www.w3.org/2000/svg">
<path d="M10.8333 2.9165C10.8333 2.58498 10.7016 2.26704 10.4672 2.03262C10.2328 1.7982 9.91484 1.6665 9.58332 1.6665C9.2518 1.6665 8.93386 1.7982 8.69944 2.03262C8.46502 2.26704 8.33332 2.58498 8.33332 2.9165V8.33317H2.91666C2.58514 8.33317 2.26719 8.46487 2.03277 8.69929C1.79835 8.93371 1.66666 9.25165 1.66666 9.58317C1.66666 9.91469 1.79835 10.2326 2.03277 10.4671C2.26719 10.7015 2.58514 10.8332 2.91666 10.8332H8.33332V16.2498C8.33332 16.5814 8.46502 16.8993 8.69944 17.1337C8.93386 17.3681 9.2518 17.4998 9.58332 17.4998C9.91484 17.4998 10.2328 17.3681 10.4672 17.1337C10.7016 16.8993 10.8333 16.5814 10.8333 16.2498V10.8332H16.25C16.5815 10.8332 16.8995 10.7015 17.1339 10.4671C17.3683 10.2326 17.5 9.91469 17.5 9.58317C17.5 9.25165 17.3683 8.93371 17.1339 8.69929C16.8995 8.46487 16.5815 8.33317 16.25 8.33317H10.8333V2.9165Z" fill="#27AE60"/>
</svg>
