<svg width="24" height="24" viewBox="0 0 24 24" fill="none" xmlns="http://www.w3.org/2000/svg">
<path fill-rule="evenodd" clip-rule="evenodd" d="M22.0001 9.99972C22.2086 9.9999 22.412 9.93488 22.5818 9.81375C22.7516 9.69262 22.8792 9.52145 22.9469 9.32418C23.0145 9.12691 23.0188 8.91342 22.9592 8.71359C22.8995 8.51376 22.7788 8.33758 22.6141 8.20972L13.6141 1.20972C13.4385 1.07316 13.2225 0.999023 13.0001 0.999023C12.7777 0.999023 12.5616 1.07316 12.3861 1.20972L3.38608 8.20972C3.22133 8.33758 3.10067 8.51376 3.041 8.71359C2.98132 8.91342 2.98562 9.12691 3.05329 9.32418C3.12096 9.52145 3.2486 9.69262 3.41837 9.81375C3.58814 9.93488 3.79153 9.9999 4.00008 9.99972H7.99008C7.87808 15.3787 6.85708 17.9627 5.74708 19.2607C4.69208 20.4947 3.45108 20.7207 2.15108 20.9557L1.81608 21.0167C1.57637 21.0616 1.36133 21.1925 1.2114 21.3849C1.06147 21.5772 0.986991 21.8177 1.00198 22.0611C1.01697 22.3045 1.1204 22.5341 1.29279 22.7066C1.46519 22.879 1.69468 22.9826 1.93808 22.9977C4.68608 23.1687 8.66808 22.9117 11.9991 20.9707C15.2321 19.0867 17.7181 15.6937 17.9781 9.99972H22.0001Z" fill="#5AF014"/>
</svg>
