<svg width="24" height="24" viewBox="0 0 24 24" fill="none" xmlns="http://www.w3.org/2000/svg">
<path fill-rule="evenodd" clip-rule="evenodd" d="M1.99992 14.0003C1.79137 14.0001 1.58797 14.0651 1.41821 14.1862C1.24844 14.3074 1.12079 14.4786 1.05312 14.6758C0.985457 14.8731 0.98116 15.0866 1.04083 15.2864C1.10051 15.4862 1.22116 15.6624 1.38592 15.7903L10.3859 22.7903C10.5615 22.9268 10.7775 23.001 10.9999 23.001C11.2223 23.001 11.4384 22.9268 11.6139 22.7903L20.6139 15.7903C20.7787 15.6624 20.8993 15.4862 20.959 15.2864C21.0187 15.0866 21.0144 14.8731 20.9467 14.6758C20.879 14.4786 20.7514 14.3074 20.5816 14.1862C20.4119 14.0651 20.2085 14.0001 19.9999 14.0003H16.0099C16.1219 8.62128 17.1429 6.03728 18.2529 4.73928C19.3079 3.50528 20.5489 3.27928 21.8489 3.04428L22.1839 2.98328C22.4236 2.93841 22.6387 2.80748 22.7886 2.61514C22.9385 2.4228 23.013 2.1823 22.998 1.93889C22.983 1.69548 22.8796 1.46593 22.7072 1.29344C22.5348 1.12095 22.3053 1.01741 22.0619 1.00228C19.3139 0.831283 15.3319 1.08828 12.0009 3.02928C8.76792 4.91328 6.28192 8.30628 6.02192 14.0003H1.99992Z" fill="#F02114"/>
</svg>
