<svg width="20" height="20" viewBox="0 0 20 20" fill="none" xmlns="http://www.w3.org/2000/svg">
<path d="M15.5494 1.79945C15.7216 1.61737 15.9286 1.47167 16.158 1.37096C16.3875 1.27024 16.6349 1.21656 16.8855 1.21307C17.1361 1.20959 17.3848 1.25637 17.617 1.35067C17.8492 1.44496 18.0602 1.58485 18.2374 1.76207C18.4146 1.93928 18.5545 2.15022 18.6488 2.38242C18.7431 2.61462 18.7899 2.86337 18.7864 3.11396C18.7829 3.36456 18.7292 3.61191 18.6285 3.8414C18.5278 4.07089 18.3821 4.27785 18.2 4.45007L12.7062 9.94382C12.699 9.95108 12.6932 9.9597 12.6893 9.96919C12.6853 9.97868 12.6833 9.98886 12.6833 9.99913C12.6833 10.0094 12.6853 10.0196 12.6893 10.0291C12.6932 10.0386 12.699 10.0472 12.7062 10.0544L18.2 15.5482C18.3765 15.7218 18.5168 15.9286 18.6129 16.1566C18.7091 16.3847 18.7591 16.6296 18.7602 16.8771C18.7612 17.1246 18.7132 17.3699 18.619 17.5987C18.5248 17.8276 18.3861 18.0356 18.2112 18.2106C18.0362 18.3856 17.8282 18.5243 17.5994 18.6186C17.3705 18.7129 17.1253 18.7609 16.8778 18.7599C16.6302 18.7589 16.3854 18.709 16.1573 18.6129C15.9292 18.5168 15.7224 18.3765 15.5487 18.2001L10.055 12.7063C10.0477 12.699 10.0391 12.6933 10.0296 12.6893C10.0201 12.6854 10.01 12.6834 9.99969 12.6834C9.98941 12.6834 9.97924 12.6854 9.96974 12.6893C9.96025 12.6933 9.95163 12.699 9.94437 12.7063L4.45062 18.2001C4.27706 18.3765 4.07027 18.5169 3.84219 18.613C3.61411 18.7092 3.36926 18.7592 3.12175 18.7602C2.87424 18.7613 2.62897 18.7133 2.40009 18.6191C2.17122 18.5248 1.96326 18.3862 1.78822 18.2112C1.61318 18.0362 1.47452 17.8283 1.38024 17.5995C1.28596 17.3706 1.23793 17.1253 1.23891 16.8778C1.23988 16.6303 1.28986 16.3855 1.38595 16.1574C1.48203 15.9293 1.62233 15.7224 1.79875 15.5488L7.2925 10.0551C7.29977 10.0478 7.30555 10.0392 7.30949 10.0297C7.31342 10.0202 7.31545 10.01 7.31545 9.99976C7.31545 9.98948 7.31342 9.97931 7.30949 9.96982C7.30555 9.96032 7.29977 9.9517 7.2925 9.94445L1.79875 4.4507C1.45181 4.09814 1.25823 3.62277 1.26019 3.12814C1.26214 2.63351 1.45947 2.15969 1.80919 1.80988C2.15891 1.46008 2.63268 1.26264 3.12732 1.26057C3.62195 1.2585 4.09736 1.45196 4.45 1.79882L9.94375 7.29257C9.95101 7.29985 9.95963 7.30562 9.96912 7.30956C9.97861 7.3135 9.98879 7.31552 9.99906 7.31552C10.0093 7.31552 10.0195 7.3135 10.029 7.30956C10.0385 7.30562 10.0471 7.29985 10.0544 7.29257L15.5481 1.79882L15.5494 1.79945Z" fill="#E11D48"/>
</svg>
