<svg xmlns="http://www.w3.org/2000/svg" viewBox="0 0 1000 1000" fill="currentColor" className="w-5 h-5">
<path d="M180.9 11.79c-25.11 3.64-48.3 21.27-56.35 43.12-3.64 9.39-4.02 14.76-4.02 55.39s.38 46 4.02 55.39c8.25 22.61 31.05 39.48 58.27 43.31 17.25 2.3 620.01 2.49 636.68.19 25.11-3.64 46.57-18.78 56.34-39.48l5.56-11.5V62.39l-5.56-11.5c-9.96-21.08-31.81-36.03-57.3-39.48-16.67-2.12-622.69-1.73-637.64.38zM143.34 266.11c-23.96 27.41-34.69 46-42.36 72.64l-4.41 14.95v234.78c0 263.34-1.15 242.44 14.18 275.03 10.92 23 22.04 36.42 52.32 63.44 44.46 39.48 59.99 49.45 93.14 58.84l14.76 4.22h458.06l15.14-4.41c21.08-5.94 40.06-14.95 54.81-26.07 17.83-13.42 55.39-47.15 67.46-60.37 12.65-13.99 26.64-40.05 32.58-60.56l4.41-15.33V588.49c0-222.32-.19-235.35-3.45-247.24-8.24-29.13-17.25-44.85-41.4-73.21-15.71-18.21-15.91-18.4-22.23-16.67-3.64.96-15.52 2.49-26.64 3.26l-20.31 1.34 25.87 29.71c28.37 32.77 37.56 47.91 42.16 69.95 4.22 19.93 4.22 445.79 0 465.34-3.83 18.02-13.22 36.41-25.87 50.02-18.21 19.74-59.22 54.24-72.83 61.33-25.3 13.42-11.31 12.65-258.35 12.65-247.24 0-233.82.57-259.12-12.65-12.84-6.71-59.22-46-74.75-63.44-4.79-5.17-11.5-15.52-15.14-22.62-12.27-25.3-11.88-16.48-11.31-264.1l.57-224.62 5.18-14.18c6.9-18.59 13.8-28.75 41.59-59.99 12.65-14.37 23.19-26.64 23.19-27.21 0-.58-4.98-1.15-10.92-1.15-9.97 0-31.05-2.68-38.91-4.79-1.71-.4-8.41 5.54-17.42 15.89z"/><path d="M449.22 401.62c-9.39 1.53-25.68 5.17-36.42 7.86-34.88 9.39-49.64 12.08-74.75 14.38-41.59 3.45-76.85.19-122.85-11.88-15.91-4.03-29.51-7.47-30.28-7.47-.58 0-.96 91.61-.77 203.54.57 190.7.77 204.31 4.02 212.35 1.92 4.79 5.37 11.5 7.67 14.95 6.13 9.2 57.31 53.28 69 59.41l9.97 5.17h450.4l8.81-4.02c9.01-4.22 41.78-31.43 61.33-50.79 7.28-7.47 12.27-14.57 15.33-22.04l4.6-11.31.58-203.73c.19-111.93-.19-203.54-.77-203.54-.77 0-14.38 3.45-30.28 7.47-40.44 10.54-54.62 12.46-95.06 12.27-38.71 0-57.3-2.49-92-12.07-39.1-10.73-46.76-11.69-90.08-12.46-30.08-.59-45.8-.01-58.45 1.91zm-182.46 68.23c8.62 6.71 9.39 13.22 8.62 82.22-.57 69.38-.57 69.19-11.31 75.51-8.82 5.17-18.4 4.03-25.87-3.45l-6.52-6.52V477.7l5.94-5.94c4.98-4.98 7.28-5.94 14.95-5.94 6.53 0 10.74 1.15 14.19 4.03zm-3.64 199.51c9.39 4.21 11.5 10.16 12.27 33.92 1.15 34.12-4.02 44.27-22.81 44.27-7.67 0-9.97-.96-14.95-5.94l-5.94-5.94v-55.58l6.52-6.52c7.09-7.08 15.71-8.62 24.91-4.21z"/>
</svg>