<svg width="150" height="30" viewBox="0 0 150 30" fill="none" xmlns="http://www.w3.org/2000/svg">
<path d="M149.701 29.2559L80.1129 0.773437C77.5867 -0.257812 72.416 -0.257812 69.9095 0.773437L0.301215 29.2559C0.129915 29.3259 0.0272977 29.4087 0.00473499 29.495C-0.0178277 29.5813 0.0405467 29.6678 0.173388 29.7448C0.30623 29.8219 0.508348 29.8865 0.757341 29.9315C1.00633 29.9766 1.29247 30.0003 1.58404 30H16.3859C17.3924 30 18.3398 29.8535 18.9318 29.6133L75.0013 6.66797L131.071 29.6133C131.663 29.8535 132.61 30 133.617 30H148.419C149.701 30 150.451 29.5664 149.701 29.2559V29.2559Z" fill="black"/>
</svg>
