<svg width="150" height="30" viewBox="0 0 150 30" fill="none" xmlns="http://www.w3.org/2000/svg">
<path d="M0.298531 0.744145L69.8871 29.2266C72.4133 30.2578 77.584 30.2578 80.0905 29.2266L149.699 0.744145C149.87 0.674095 149.973 0.59133 149.995 0.505024C150.018 0.418719 149.959 0.332244 149.827 0.255186C149.694 0.178127 149.492 0.113496 149.243 0.0684538C148.994 0.0234119 148.708 -0.000280095 148.416 3.8147e-06L133.614 3.8147e-06C132.608 3.8147e-06 131.66 0.146487 131.068 0.386721L74.9987 23.332L18.9292 0.386721C18.3371 0.146487 17.3898 3.8147e-06 16.3832 3.8147e-06H1.58136C0.298531 3.8147e-06 -0.451431 0.433598 0.298531 0.744145V0.744145Z" fill="black"/>
</svg>
