<svg width="35" height="35" viewBox="0 0 35 35" fill="none" xmlns="http://www.w3.org/2000/svg">
<path d="M30.625 8.17426H3.28125V7.08051L27.3438 5.15551V7.08051H30.625V3.79926C30.625 1.39301 28.6759 -0.295744 26.2959 0.0433185L4.33125 3.18019C1.94906 3.52144 0 5.76801 0 8.17426V30.0493C0 31.2096 0.460936 32.3224 1.28141 33.1428C2.10188 33.9633 3.21468 34.4243 4.375 34.4243H30.625C31.7853 34.4243 32.8981 33.9633 33.7186 33.1428C34.5391 32.3224 35 31.2096 35 30.0493V12.5493C35 11.3889 34.5391 10.2761 33.7186 9.45566C32.8981 8.63519 31.7853 8.17426 30.625 8.17426ZM27.3438 23.4999C26.9127 23.4997 26.4859 23.4147 26.0877 23.2496C25.6896 23.0845 25.3278 22.8426 25.0231 22.5377C24.7184 22.2328 24.4768 21.8709 24.3119 21.4726C24.1471 21.0743 24.0624 20.6475 24.0625 20.2164C24.0626 19.7854 24.1477 19.3586 24.3128 18.9604C24.4779 18.5623 24.7198 18.2005 25.0246 17.8958C25.3295 17.5911 25.6915 17.3494 26.0898 17.1846C26.488 17.0198 26.9149 16.935 27.3459 16.9352C28.2165 16.9355 29.0512 17.2816 29.6666 17.8973C30.2819 18.5131 30.6275 19.3481 30.6272 20.2186C30.6269 21.0892 30.2808 21.9239 29.665 22.5393C29.0493 23.1546 28.2143 23.5002 27.3438 23.4999Z" fill="#ABDA07"/>
</svg>
